<svg width="79" height="39" viewBox="0 0 79 39" fill="none" xmlns="http://www.w3.org/2000/svg">
<path d="M67.1868 12.4484C65.2983 5.69439 58.9753 0.70874 51.5028 0.70874C46.2474 0.70874 41.5665 3.20121 38.6104 6.98047C41.3202 8.74942 43.455 11.242 44.769 14.1367C50.5169 16.2271 54.4583 21.5341 54.4583 27.7256C54.4583 31.7459 52.8162 35.3641 50.1062 37.9374H64.9691C72.1954 37.9374 78.1078 32.1481 78.1078 25.072C78.0265 18.8003 73.3456 13.4939 67.1869 12.4484H67.1868Z" fill="#D0DAF3"/>
<path d="M41.4024 17.6749C39.9247 12.2876 34.9156 8.34753 28.9208 8.34753C23.7473 8.34753 19.2314 11.3224 17.1786 15.6647H16.4397C12.1695 15.6647 8.72066 18.9615 8.47446 23.0621H7.73556C3.46541 23.0621 0.0991211 26.4392 0.0991211 30.5397C0.0991211 34.721 3.54797 38.0172 7.73556 38.0172H39.6784C45.4264 38.0172 50.1072 33.4337 50.1072 27.8054C50.0247 22.7408 46.3296 18.4792 41.4026 17.6749H41.4024Z" fill="#D0DAF3"/>
</svg>
