<svg width="79" height="47" viewBox="0 0 79 47" fill="none" xmlns="http://www.w3.org/2000/svg">
<path d="M78.3491 35.7113C76.7904 35.6292 75.3141 35.3822 73.7554 34.8876C64.0758 31.841 58.7433 21.4653 61.8607 11.7487C63.091 7.79635 65.5521 4.6671 68.5877 2.36145C69.0799 2.03232 68.9156 1.20865 68.2599 1.12651C59.4002 -0.0262863 50.6227 4.83187 47.0132 13.1491C48.8998 14.9607 50.4586 17.1015 51.4427 19.572C57.8413 21.7128 62.2714 27.7243 62.2714 34.7235C62.2714 37.0291 61.7793 39.1698 60.9587 41.1463C67.4391 42.711 74.0019 40.8994 78.76 36.8643C79.2516 36.5351 78.9237 35.7942 78.3492 35.7115L78.3491 35.7113Z" fill="#BCCAEE"/>
<path d="M48.4071 22.9478C46.6841 16.6071 40.9419 11.996 34.1331 11.996C28.1448 11.996 23.0583 15.5365 20.6796 20.5595C20.3517 20.5595 20.1051 20.4774 19.7772 20.4774C14.8549 20.4774 10.9176 24.3476 10.6715 29.2058C10.3436 29.2058 10.097 29.1236 9.76909 29.1236C4.92926 29.1236 0.991211 33.076 0.991211 37.9348C0.991211 42.793 4.92867 46.746 9.76909 46.746H46.274C52.9186 46.746 58.2512 41.3939 58.2512 34.7234C58.333 28.876 54.0676 23.9358 48.4073 22.9478L48.4071 22.9478Z" fill="#D0DAF3"/>
</svg>
