<svg width="18" height="19" viewBox="0 0 18 19" fill="none" xmlns="http://www.w3.org/2000/svg">
<path d="M9 11.0399C8.7875 11.0399 8.6095 10.9679 8.466 10.8239C8.322 10.6804 8.25 10.5024 8.25 10.2899C8.25 10.0774 8.322 9.89911 8.466 9.75511C8.6095 9.61161 8.7875 9.53986 9 9.53986C9.2125 9.53986 9.39075 9.61161 9.53475 9.75511C9.67825 9.89911 9.75 10.0774 9.75 10.2899C9.75 10.5024 9.67825 10.6804 9.53475 10.8239C9.39075 10.9679 9.2125 11.0399 9 11.0399ZM6 11.0399C5.7875 11.0399 5.60925 10.9679 5.46525 10.8239C5.32175 10.6804 5.25 10.5024 5.25 10.2899C5.25 10.0774 5.32175 9.89911 5.46525 9.75511C5.60925 9.61161 5.7875 9.53986 6 9.53986C6.2125 9.53986 6.39075 9.61161 6.53475 9.75511C6.67825 9.89911 6.75 10.0774 6.75 10.2899C6.75 10.5024 6.67825 10.6804 6.53475 10.8239C6.39075 10.9679 6.2125 11.0399 6 11.0399ZM12 11.0399C11.7875 11.0399 11.6095 10.9679 11.466 10.8239C11.322 10.6804 11.25 10.5024 11.25 10.2899C11.25 10.0774 11.322 9.89911 11.466 9.75511C11.6095 9.61161 11.7875 9.53986 12 9.53986C12.2125 9.53986 12.3905 9.61161 12.534 9.75511C12.678 9.89911 12.75 10.0774 12.75 10.2899C12.75 10.5024 12.678 10.6804 12.534 10.8239C12.3905 10.9679 12.2125 11.0399 12 11.0399ZM9 14.0399C8.7875 14.0399 8.6095 13.9679 8.466 13.8239C8.322 13.6804 8.25 13.5024 8.25 13.2899C8.25 13.0774 8.322 12.8994 8.466 12.7559C8.6095 12.6119 8.7875 12.5399 9 12.5399C9.2125 12.5399 9.39075 12.6119 9.53475 12.7559C9.67825 12.8994 9.75 13.0774 9.75 13.2899C9.75 13.5024 9.67825 13.6804 9.53475 13.8239C9.39075 13.9679 9.2125 14.0399 9 14.0399ZM6 14.0399C5.7875 14.0399 5.60925 13.9679 5.46525 13.8239C5.32175 13.6804 5.25 13.5024 5.25 13.2899C5.25 13.0774 5.32175 12.8994 5.46525 12.7559C5.60925 12.6119 5.7875 12.5399 6 12.5399C6.2125 12.5399 6.39075 12.6119 6.53475 12.7559C6.67825 12.8994 6.75 13.0774 6.75 13.2899C6.75 13.5024 6.67825 13.6804 6.53475 13.8239C6.39075 13.9679 6.2125 14.0399 6 14.0399ZM12 14.0399C11.7875 14.0399 11.6095 13.9679 11.466 13.8239C11.322 13.6804 11.25 13.5024 11.25 13.2899C11.25 13.0774 11.322 12.8994 11.466 12.7559C11.6095 12.6119 11.7875 12.5399 12 12.5399C12.2125 12.5399 12.3905 12.6119 12.534 12.7559C12.678 12.8994 12.75 13.0774 12.75 13.2899C12.75 13.5024 12.678 13.6804 12.534 13.8239C12.3905 13.9679 12.2125 14.0399 12 14.0399ZM3.75 17.0399C3.3375 17.0399 2.98425 16.8931 2.69025 16.5996C2.39675 16.3056 2.25 15.9524 2.25 15.5399V5.03986C2.25 4.62736 2.39675 4.27436 2.69025 3.98086C2.98425 3.68686 3.3375 3.53986 3.75 3.53986H4.5V2.78986C4.5 2.57736 4.57175 2.39911 4.71525 2.25511C4.85925 2.11161 5.0375 2.03986 5.25 2.03986C5.4625 2.03986 5.64075 2.11161 5.78475 2.25511C5.92825 2.39911 6 2.57736 6 2.78986V3.53986H12V2.78986C12 2.57736 12.072 2.39911 12.216 2.25511C12.3595 2.11161 12.5375 2.03986 12.75 2.03986C12.9625 2.03986 13.1405 2.11161 13.284 2.25511C13.428 2.39911 13.5 2.57736 13.5 2.78986V3.53986H14.25C14.6625 3.53986 15.0157 3.68686 15.3097 3.98086C15.6033 4.27436 15.75 4.62736 15.75 5.03986V15.5399C15.75 15.9524 15.6033 16.3056 15.3097 16.5996C15.0157 16.8931 14.6625 17.0399 14.25 17.0399H3.75ZM3.75 15.5399H14.25V8.03986H3.75V15.5399ZM3.75 6.53986H14.25V5.03986H3.75V6.53986ZM3.75 6.53986V5.03986V6.53986Z" fill="white"/>
</svg>
