<svg width="79" height="54" viewBox="0 0 79 54" fill="none" xmlns="http://www.w3.org/2000/svg">
<path d="M39.5377 24.3153C40.0298 23.5808 40.5219 22.9277 41.0964 22.2745C38.8815 17.0501 33.6316 13.3768 27.6436 13.3768C19.6049 13.3768 13.0425 19.9075 13.0425 27.9073C13.0425 33.1317 15.8313 37.7029 20.0152 40.3154C21.4915 36.3972 24.9373 33.4585 29.1204 32.724C30.5961 28.2335 34.6158 24.887 39.5377 24.3153Z" fill="#FFEBB8"/>
<path d="M27.5613 10.3563C28.6279 10.3563 29.4478 9.53977 29.4478 8.47894V2.35657C29.4478 1.29518 28.6273 0.479187 27.5613 0.479187C26.4948 0.479187 25.6748 1.29574 25.6748 2.35657V8.47894C25.6748 9.53975 26.5772 10.3563 27.5613 10.3563Z" fill="#FFEBB8"/>
<path d="M12.468 15.4991C12.8783 15.9074 13.2885 16.0708 13.7806 16.0708C14.2727 16.0708 14.7648 15.9074 15.0932 15.4991C15.8313 14.7645 15.8313 13.5398 15.0932 12.8052L10.7457 8.47877C10.0075 7.74422 8.77682 7.74422 8.0387 8.47877C7.30058 9.21332 7.30058 10.4381 8.0387 11.1726L12.468 15.4991Z" fill="#FFEBB8"/>
<path d="M9.92521 27.9071C9.92521 26.8457 9.10468 26.0297 8.03869 26.0297H1.88652C0.819967 26.0297 0 26.8463 0 27.9071C0 28.9685 0.820523 29.7845 1.88652 29.7845H8.03869C9.10467 29.7845 9.92521 28.9685 9.92521 27.9071Z" fill="#FFEBB8"/>
<path d="M12.468 40.3151L8.12049 44.6416C7.38236 45.3761 7.38236 46.6009 8.12049 47.3354C8.53075 47.7437 8.94101 47.9071 9.43308 47.9071C9.92516 47.9071 10.4173 47.7437 10.7457 47.3354L15.0932 43.0089C15.8313 42.2744 15.8313 41.0496 15.0932 40.3151C14.3545 39.5806 13.2061 39.5806 12.468 40.3151H12.468Z" fill="#FFEBB8"/>
<path d="M41.4243 16.0705C41.9164 16.0705 42.4084 15.9071 42.7369 15.4988L47.0844 11.1724C47.8225 10.4378 47.8225 9.21307 47.0844 8.47853C46.3463 7.74397 45.1156 7.74397 44.3774 8.47853L40.0299 12.805C39.2918 13.5396 39.2918 14.7643 40.0299 15.4988C40.4396 15.9071 40.9323 16.0705 41.4243 16.0705H41.4243Z" fill="#FFEBB8"/>
<path d="M68.4119 30.3561C66.7715 24.3152 61.2755 19.9072 54.6313 19.9072C48.8894 19.9072 43.9674 23.2543 41.7525 28.0704C41.5064 28.0704 41.178 27.989 40.932 27.989C36.256 27.989 32.4012 31.6622 32.237 36.3155C31.991 36.3155 31.6626 36.2341 31.4165 36.2341C26.7406 36.2341 22.9675 39.9894 22.9675 44.6422C22.9675 49.2954 26.7412 53.0502 31.4165 53.0502H66.5249C72.8413 53.0502 78.0087 47.9073 78.0087 41.6221C77.9274 35.9068 73.8259 31.2541 68.4119 30.3562L68.4119 30.3561Z" fill="#D0DAF3"/>
</svg>
