<svg width="79" height="79" viewBox="0 0 79 79" fill="none" xmlns="http://www.w3.org/2000/svg">
<path d="M39.6437 18.7136C28.2418 18.7136 18.9727 27.9732 18.9727 39.363C18.9727 50.7528 28.242 60.0124 39.6437 60.0124C51.0455 60.0124 60.3148 50.7528 60.3148 39.363C60.3148 27.9732 51.0455 18.7136 39.6437 18.7136Z" fill="#FFEBB8"/>
<path d="M39.6437 14.4526C41.1199 14.4526 42.3506 13.2237 42.3506 11.7485V3.06276C42.3506 1.5881 41.1204 0.358673 39.6437 0.358673C38.1675 0.358673 36.9368 1.58757 36.9368 3.06276V11.7485C36.9368 13.3055 38.1675 14.4526 39.6437 14.4526Z" fill="#FFEBB8"/>
<path d="M18.2344 21.7454C18.7265 22.237 19.4646 22.5651 20.1209 22.5651C20.7772 22.5651 21.5153 22.3193 22.0074 21.7454C23.0739 20.68 23.0739 19.0413 22.0074 17.9758L15.8553 11.8301C14.7887 10.7647 13.1483 10.7647 12.0817 11.8301C11.015 12.8956 11.0151 14.5342 12.0817 15.5998L18.2344 21.7454Z" fill="#FFEBB8"/>
<path d="M14.7071 39.363C14.7071 37.8883 13.4769 36.6589 12.0002 36.6589H3.30532C1.8291 36.6589 0.598389 37.8878 0.598389 39.363C0.598389 40.8376 1.82858 42.0671 3.30532 42.0671H12.0002C13.5588 42.0671 14.7071 40.8376 14.7071 39.363Z" fill="#FFEBB8"/>
<path d="M18.2342 56.9805L12.0821 63.1262C11.0156 64.1916 11.0156 65.8303 12.0821 66.8958C12.5742 67.3874 13.3123 67.7155 13.9686 67.7155C14.6249 67.7155 15.363 67.4697 15.8551 66.8958L22.0072 60.7502C23.0738 59.6847 23.0738 58.0461 22.0072 56.9805C21.0231 55.9157 19.3008 55.9157 18.2342 56.9805Z" fill="#FFEBB8"/>
<path d="M39.6437 64.2734C38.1675 64.2734 36.9368 65.5023 36.9368 66.9775V75.6632C36.9368 77.1378 38.167 78.3673 39.6437 78.3673C41.1199 78.3673 42.3506 77.1384 42.3506 75.6632V66.9775C42.3506 65.4204 41.1199 64.2734 39.6437 64.2734Z" fill="#FFEBB8"/>
<path d="M61.053 56.9805C59.9865 55.9151 58.3461 55.9151 57.2794 56.9805C56.2128 58.0459 56.2129 59.6846 57.2794 60.7502L63.4316 66.8958C63.9236 67.3874 64.6617 67.7155 65.318 67.7155C65.9743 67.7155 66.7125 67.4697 67.2046 66.8958C68.2711 65.8304 68.2711 64.1917 67.2046 63.1262L61.053 56.9805Z" fill="#FFEBB8"/>
<path d="M75.9001 36.6589H67.2052C65.729 36.6589 64.4983 37.8878 64.4983 39.363C64.4983 40.8376 65.7285 42.0671 67.2052 42.0671H75.9001C77.3763 42.0671 78.607 40.8382 78.607 39.363C78.607 37.8883 77.3768 36.6589 75.9001 36.6589Z" fill="#FFEBB8"/>
<path d="M59.1662 22.5648C59.8225 22.5648 60.5606 22.3191 61.0527 21.7452L67.2049 15.5995C68.2714 14.5341 68.2714 12.8954 67.2049 11.8299C66.1383 10.7644 64.4979 10.7645 63.4313 11.8299L57.2792 17.9756C56.2126 19.041 56.2126 20.6797 57.2792 21.7452C57.7718 22.3191 58.4275 22.5648 59.1662 22.5648Z" fill="#FFEBB8"/>
</svg>
