<svg width="78" height="79" viewBox="0 0 78 79" fill="none" xmlns="http://www.w3.org/2000/svg">
<path d="M63.9381 14.9973C61.6528 6.52662 53.9807 0.358673 44.8394 0.358673C36.9225 0.358673 30.0665 5.04661 26.965 11.8719C26.5568 11.8719 26.2306 11.7898 25.8224 11.7898C19.2928 11.7898 13.9879 16.9711 13.7431 23.4678C13.3348 23.4678 12.9266 23.3858 12.519 23.3858C6.07147 23.3858 0.8479 28.6491 0.8479 35.1457C0.8479 41.6423 6.07147 46.9056 12.519 46.9056H61.1635C69.9783 46.9056 77.1607 39.6684 77.1607 30.7867C77.1595 22.8926 71.4464 16.3134 63.9375 14.9968L63.9381 14.9973Z" fill="#D0DAF3"/>
<path d="M44.0567 61.1185H41.9348L44.873 54.2105C45.6075 52.4013 44.3014 50.5099 42.4243 50.5099H35.4865C34.1805 50.5099 33.0378 51.4966 32.8744 52.8126L31.1602 64.1618C30.9153 65.8064 32.1394 67.287 33.7722 67.287H35.4044L34.8328 76.909C34.7514 78.307 36.4651 78.8829 37.2815 77.8137L46.3412 65.5599C47.6477 63.6679 46.3417 61.1187 44.0564 61.1187L44.0567 61.1185Z" fill="#FFEBB8"/>
</svg>
