<svg width="79" height="76" viewBox="0 0 79 76" fill="none" xmlns="http://www.w3.org/2000/svg">
<path d="M65.3504 15.5047C62.9719 6.99605 55.1788 0.695862 45.9098 0.695862C37.7889 0.695862 30.8167 5.44124 27.6176 12.3139C27.2074 12.3139 26.7971 12.2322 26.3875 12.2322C19.7434 12.2322 14.3294 17.4685 14.0014 24.014C13.5912 24.014 13.1809 23.9324 12.7713 23.9324C6.20889 23.9324 0.794922 29.2502 0.794922 35.8779C0.794922 42.4234 6.12643 47.8235 12.7713 47.8235H62.48C71.5034 47.8235 78.8035 40.5418 78.8035 31.5419C78.8024 23.4414 72.9781 16.8149 65.3498 15.5044L65.3504 15.5047Z" fill="#D0DAF3"/>
<path d="M68.3034 58.1313C68.3034 60.2549 66.5771 61.9761 64.4481 61.9761C62.319 61.9761 60.5928 60.2549 60.5928 58.1313C60.5928 56.0071 62.319 54.2859 64.4481 54.2859C66.5771 54.2859 68.3034 56.0071 68.3034 58.1313Z" fill="#BBCCF8"/>
<path d="M51.6515 58.1313C51.6515 60.2549 49.9253 61.9761 47.7962 61.9761C45.6672 61.9761 43.9409 60.2549 43.9409 58.1313C43.9409 56.0071 45.6672 54.2859 47.7962 54.2859C49.9253 54.2859 51.6515 56.0071 51.6515 58.1313Z" fill="#BBCCF8"/>
<path d="M35.1641 57.3131C35.1641 59.4367 33.4385 61.1585 31.3094 61.1585C29.1798 61.1585 27.4541 59.4367 27.4541 57.3131C27.4541 55.1895 29.1798 53.4677 31.3094 53.4677C33.4385 53.4677 35.1641 55.1895 35.1641 57.3131Z" fill="#BBCCF8"/>
<path d="M27.3717 70.7311C27.3717 72.8547 25.6461 74.5765 23.5164 74.5765C21.3874 74.5765 19.6611 72.8547 19.6611 70.7311C19.6611 68.6075 21.3874 66.8857 23.5164 66.8857C25.6461 66.8857 27.3717 68.6075 27.3717 70.7311Z" fill="#BBCCF8"/>
<path d="M59.5264 70.7311C59.5264 72.8547 57.8008 74.5765 55.6711 74.5765C53.5421 74.5765 51.8164 72.8547 51.8164 70.7311C51.8164 68.6075 53.5421 66.8857 55.6711 66.8857C57.8008 66.8857 59.5264 68.6075 59.5264 70.7311Z" fill="#BBCCF8"/>
<path d="M43.859 71.4674C43.859 73.591 42.1328 75.3128 40.0037 75.3128C37.8741 75.3128 36.1484 73.591 36.1484 71.4674C36.1484 69.3438 37.8741 67.622 40.0037 67.622C42.1328 67.622 43.859 69.3438 43.859 71.4674Z" fill="#BBCCF8"/>
<path d="M19.0866 58.1313C19.0866 60.2549 17.3603 61.9761 15.2313 61.9761C13.1022 61.9761 11.376 60.2549 11.376 58.1313C11.376 56.0071 13.1022 54.2859 15.2313 54.2859C17.3603 54.2859 19.0866 56.0071 19.0866 58.1313Z" fill="#BBCCF8"/>
</svg>
