<svg width="75" height="79" viewBox="0 0 75 79" fill="none" xmlns="http://www.w3.org/2000/svg">
<path d="M61.9003 14.6466C59.6935 6.43525 52.1746 0.358673 43.2664 0.358673C35.5025 0.358673 28.8825 4.9569 25.7767 11.5262C25.368 11.5262 25.0413 11.4443 24.6326 11.4443C18.2578 11.4443 13.1089 16.4532 12.7822 22.7761C12.3735 22.7761 12.0468 22.6942 11.6381 22.6942C5.34493 22.6942 0.196533 27.8675 0.196533 34.1899C0.196533 40.5128 5.34551 45.6855 11.6381 45.6855H59.2035C67.785 45.6855 74.8135 38.7055 74.8135 30.0018C74.8129 22.3649 69.2557 15.96 61.8999 14.6465L61.9003 14.6466Z" fill="#D0DAF3"/>
<path d="M45.8002 64.3255C44.5745 65.9676 41.3872 70.566 41.3872 73.4401C41.3872 76.9707 43.9206 78.3673 46.2912 78.3673C48.661 78.3673 51.1951 76.9714 51.1951 73.4401C51.1951 70.5659 48.0077 65.9676 46.7821 64.3255C46.5364 63.9973 46.0455 63.9973 45.8004 64.3255H45.8002Z" fill="#BBCCF8"/>
<path d="M28.3105 64.3255C27.0848 65.9676 23.8975 70.566 23.8975 73.4401C23.8975 76.9707 26.4309 78.3673 28.8014 78.3673C31.1712 78.3673 33.7053 76.9714 33.7053 73.4401C33.7053 70.5659 30.518 65.9676 29.2924 64.3255C29.0466 63.9973 28.5558 63.9973 28.3107 64.3255H28.3105Z" fill="#BBCCF8"/>
<path d="M54.6264 49.2166C53.4007 50.8587 50.2134 55.4571 50.2134 58.3312C50.2134 61.8618 52.7468 63.2583 55.1173 63.2583C57.4871 63.2583 60.0213 61.8625 60.0213 58.3312C60.0213 55.4569 56.8339 50.8587 55.6083 49.2166C55.2805 48.8884 54.7902 48.8884 54.6266 49.2166H54.6264Z" fill="#BBCCF8"/>
<path d="M38.0361 49.2166C37.791 48.8884 37.3007 48.8884 37.1371 49.2166C35.9114 50.8587 32.7241 55.4571 32.7241 58.3312C32.7241 61.8618 35.2575 63.2583 37.6281 63.2583C39.9979 63.2583 42.532 61.8625 42.532 58.3312C42.4499 55.4575 39.2626 50.8587 38.0363 49.2166H38.0361Z" fill="#BBCCF8"/>
<path d="M20.4644 49.2166C20.2192 48.8884 19.729 48.8884 19.5653 49.2166C18.3397 50.8587 15.1523 55.4571 15.1523 58.3312C15.1523 61.8618 17.6858 63.2583 20.0563 63.2583C22.4261 63.2583 24.9602 61.8625 24.9602 58.3312C24.9597 55.4575 21.7723 50.8587 20.4645 49.2166H20.4644Z" fill="#BBCCF8"/>
</svg>
