<svg width="71" height="74" viewBox="0 0 71 74" fill="none" xmlns="http://www.w3.org/2000/svg">
<path d="M69.6316 34.1418C69.6316 36.6766 68.6247 39.1072 66.8323 40.8992C65.0405 42.6916 62.6099 43.6985 60.075 43.6985H10.9267C8.39192 43.6985 5.96134 42.6916 4.16938 40.8992C2.37695 39.1074 1.37012 36.6768 1.37012 34.1418C1.38414 31.8965 2.18194 29.7274 3.62516 28.0075C5.06841 26.2876 7.06632 25.1259 9.27503 24.7218C9.66388 24.6657 10.0064 24.4341 10.2033 24.094C10.4087 23.7637 10.4629 23.3608 10.3532 22.9878C9.82539 21.2952 9.55843 19.5321 9.56148 17.7591C9.55844 12.3426 12.0281 7.22183 16.2694 3.85197C20.5102 0.482742 26.0569 -0.765467 31.332 0.461991C36.6075 1.69009 41.0337 5.25917 43.3508 10.1545C43.5075 10.4806 43.7878 10.7311 44.1291 10.8511C44.4656 10.9913 44.8441 10.9913 45.1805 10.8511C46.8383 10.0216 48.6642 9.58219 50.5183 9.56756C53.7772 9.56756 56.9026 10.8621 59.2065 13.1665C61.511 15.4703 62.8054 18.5957 62.8054 21.8546C62.8048 22.4854 62.7542 23.1156 62.6554 23.7385C62.5543 24.3754 62.9132 24.9958 63.5154 25.2268C65.3091 25.9308 66.8511 27.157 67.9408 28.746C69.0311 30.335 69.6199 32.2145 69.6315 34.1417L69.6316 34.1418Z" fill="#D0DAF3"/>
<path d="M70.1497 53.2551C58.3812 48.5176 46.6131 50.9067 35.2279 53.2551C23.8426 55.6034 12.8787 57.7878 1.88819 53.2551C1.46704 53.0789 0.985544 53.1246 0.605231 53.3782C0.195053 53.653 -0.0347267 54.1278 0.00427989 54.6203V55.9855C0.00123254 56.5414 0.336445 57.0436 0.850848 57.2551C5.6279 59.1462 10.7311 60.0738 15.8684 59.9855C22.5744 59.7734 29.2428 58.8909 35.7726 57.3507C47.268 55.0164 58.1218 52.7905 69.1123 57.2824C69.539 57.458 70.0253 57.4062 70.4056 57.1441C70.7853 56.8826 71.0078 56.4468 70.9962 55.9855V54.6202C71.0401 54.0296 70.6982 53.4787 70.1497 53.255V53.2551Z" fill="#BBCCF8"/>
<path d="M70.1497 60.0812C58.3812 55.3304 46.6131 57.7329 35.2279 60.0812C23.8426 62.4296 12.8787 64.6139 1.88819 60.0812C1.46704 59.9051 0.985544 59.9508 0.605231 60.2043C0.195053 60.4792 -0.0347267 60.954 0.00427989 61.4464V62.8117C0.00123254 63.3675 0.336445 63.8697 0.850848 64.0812C5.6279 65.9724 10.7311 66.9 15.8684 66.8117C22.5744 66.5995 29.2428 65.717 35.7726 64.1768C47.268 61.8285 58.1218 59.6167 69.1123 64.1086C69.539 64.2841 70.0253 64.2323 70.4056 63.9702C70.7853 63.7088 71.0078 63.273 70.9962 62.8116V61.4464C71.0401 60.8558 70.6982 60.3048 70.1497 60.0811V60.0812Z" fill="#BBCCF8"/>
<path d="M70.1497 66.9074C58.3812 62.1699 46.6131 64.559 35.2279 66.9074C23.8426 69.2557 12.8787 71.4401 1.88819 66.9074C1.46704 66.7312 0.985544 66.7769 0.605231 67.0305C0.195053 67.3053 -0.0347267 67.7801 0.00427989 68.2726V69.6378C0.00123254 70.1937 0.336445 70.6959 0.850848 70.9073C5.6279 72.7985 10.7311 73.7261 15.8684 73.6378C22.5744 73.4257 29.2428 72.5432 35.7726 71.003C47.268 68.6546 58.1218 66.4428 69.1123 70.9347C69.539 71.1103 70.0253 71.0585 70.4056 70.7964C70.7853 70.5349 71.0078 70.0991 70.9962 69.6378V68.2725C71.0401 67.6819 70.6982 67.131 70.1497 66.9073V66.9074Z" fill="#BBCCF8"/>
</svg>
