<svg width="71" height="60" viewBox="0 0 71 60" fill="none" xmlns="http://www.w3.org/2000/svg">
<path d="M54.818 33.4543C53.9691 35.0775 51.8455 37.0634 46.8041 37.0607H7.5679C4.36476 37.0082 1.86072 35.2849 0.696542 32.3328C-0.868573 28.3648 0.281217 23.1232 3.36991 20.1424C4.81497 18.7471 7.80405 16.8015 12.4296 18.1404C12.7222 14.5546 14.5394 11.4576 17.6884 9.65312C22.5357 6.87527 30.3739 7.86516 34.1749 12.2877C37.9725 16.7053 37.0562 21.5803 37.0562 21.5803C37.0562 21.5803 37.0252 22.2754 37.998 22.3335C38.7911 22.3811 38.9802 21.9386 39.1494 21.3552C39.1494 21.3552 40.5525 17.2118 37.7906 12.8767C40.5192 11.5234 43.2485 12.208 45.5529 13.772C48.2113 15.5743 49.365 18.402 48.7267 21.1256C50.9195 21.3053 52.828 22.3693 54.1376 24.1915C56.0506 26.8539 56.3254 30.5763 54.8195 33.4542L54.818 33.4543ZM69.3167 16.4398C67.9784 14.5773 66.0289 13.4911 63.7886 13.3075C64.4412 10.5247 63.2621 7.63609 60.5462 5.79462C58.1909 4.19694 54.0985 3.02456 49.989 5.72162C49.6787 5.23939 49.3331 4.75659 48.9216 4.27883C45.0376 -0.239407 37.0299 -1.25096 32.077 1.58607C30.1591 2.68493 28.7378 4.26057 27.828 6.12313C31.0715 6.04626 35.3304 8.65209 36.7733 10.731C39.8161 9.22123 44.2083 9.95066 46.7793 11.6944C49.7436 13.704 51.3529 16.3 50.8839 19.4705C53.3289 19.6718 55.3966 21.2225 56.8571 23.2548C58.2778 25.2319 58.3624 27.7891 58.1163 30.1871L61.8924 30.249C66.9366 30.3325 69.1453 27.5623 70.013 25.9034C71.551 22.9634 71.2712 19.1603 69.3162 16.4399L69.3167 16.4398ZM15.8777 59.5778C15.7571 59.5778 15.6343 59.5646 15.5121 59.5353C14.6599 59.3345 14.1318 58.4806 14.3331 57.6284L17.9461 42.2986C18.1468 41.4453 19.0012 40.9144 19.8529 41.1195C20.7052 41.3203 21.2333 42.1742 21.032 43.0264L17.4186 58.3562C17.2477 59.0856 16.5962 59.5773 15.8778 59.5773L15.8777 59.5778ZM5.6555 59.5778C5.53494 59.5778 5.41216 59.5646 5.28996 59.5353C4.43774 59.3345 3.90959 58.4806 4.1109 57.6284L7.72433 42.2986C7.92508 41.4453 8.78173 40.9144 9.63121 41.1195C10.4834 41.3203 11.0116 42.1742 10.8103 43.0264L7.19683 58.3562C7.02595 59.0862 6.37503 59.5778 5.6555 59.5778V59.5778ZM36.6888 59.5778C36.5683 59.5778 36.4455 59.5646 36.3233 59.5353C35.4711 59.3345 34.9429 58.4806 35.1442 57.6284L38.7572 42.2986C38.958 41.4453 39.8135 40.9144 40.6641 41.1195C41.5163 41.3203 42.0445 42.1742 41.8432 43.0264L38.2297 58.3562C38.0588 59.0856 37.4074 59.5773 36.689 59.5773L36.6888 59.5778ZM26.4667 59.5778C26.3461 59.5778 26.2233 59.5646 26.1011 59.5353C25.2489 59.3345 24.7207 58.4806 24.9221 57.6284L28.5355 42.2986C28.7362 41.4453 29.5907 40.9144 30.4424 41.1195C31.2946 41.3203 31.8227 42.1742 31.6214 43.0264L28.008 58.3562C27.8371 59.0862 27.1862 59.5778 26.4667 59.5778V59.5778Z" fill="#D0DAF3"/>
</svg>
