<svg width="72" height="65" viewBox="0 0 72 65" fill="none" xmlns="http://www.w3.org/2000/svg">
<path d="M36.0209 21.8217C36.4692 21.1492 36.9175 20.5513 37.4409 19.9534C35.423 15.1705 30.6401 11.8076 25.1848 11.8076C17.8611 11.8076 11.8823 17.7864 11.8823 25.1101C11.8823 29.893 14.4231 34.0779 18.2349 36.4696C19.5798 32.8825 22.7191 30.1922 26.5302 29.5197C27.8746 25.4087 31.5368 22.3451 36.0209 21.8217V21.8217Z" fill="#FFEBB8"/>
<path d="M25.1098 9.04239C26.0815 9.04239 26.8286 8.29485 26.8286 7.32368V1.71872C26.8286 0.747033 26.081 0 25.1098 0C24.1381 0 23.3911 0.747541 23.3911 1.71872V7.32368C23.3911 8.29484 24.2132 9.04239 25.1098 9.04239Z" fill="#FFEBB8"/>
<path d="M11.359 13.7506C11.7328 14.1243 12.1066 14.2739 12.5549 14.2739C13.0032 14.2739 13.4515 14.1243 13.7507 13.7506C14.4232 13.0781 14.4232 11.9568 13.7507 11.2844L9.78987 7.32354C9.1174 6.65106 7.99615 6.65106 7.32369 7.32354C6.65122 7.99601 6.65122 9.11726 7.32369 9.78972L11.359 13.7506Z" fill="#FFEBB8"/>
<path d="M9.04239 25.1099C9.04239 24.1382 8.29485 23.3912 7.32367 23.3912H1.71872C0.747033 23.3912 0 24.1387 0 25.1099C0 26.0816 0.74754 26.8286 1.71872 26.8286H7.32367C8.29484 26.8286 9.04239 26.0816 9.04239 25.1099Z" fill="#FFEBB8"/>
<path d="M11.3592 36.4693L7.3984 40.4301C6.72592 41.1026 6.72592 42.2239 7.3984 42.8963C7.77217 43.2701 8.14594 43.4197 8.59424 43.4197C9.04254 43.4197 9.49088 43.2701 9.79009 42.8963L13.7509 38.9355C14.4234 38.263 14.4234 37.1418 13.7509 36.4693C13.0779 35.7968 12.0317 35.7968 11.3592 36.4693H11.3592Z" fill="#FFEBB8"/>
<path d="M37.7395 14.2737C38.1878 14.2737 38.6362 14.1241 38.9354 13.7503L42.8962 9.78946C43.5687 9.11699 43.5687 7.99574 42.8962 7.32328C42.2237 6.65081 41.1025 6.65081 40.43 7.32328L36.4692 11.2841C35.7967 11.9566 35.7967 13.0778 36.4692 13.7503C36.8424 14.1241 37.2913 14.2737 37.7396 14.2737H37.7395Z" fill="#FFEBB8"/>
<path d="M62.327 27.3519C60.8325 21.8216 55.8254 17.7861 49.7722 17.7861C44.541 17.7861 40.0568 20.8503 38.0389 25.2594C37.8147 25.2594 37.5155 25.1848 37.2914 25.1848C33.0313 25.1848 29.5194 28.5477 29.3698 32.8077C29.1457 32.8077 28.8464 32.7332 28.6223 32.7332C24.3622 32.7332 20.9248 36.1711 20.9248 40.4306C20.9248 44.6907 24.3628 48.1281 28.6223 48.1281H60.6079C66.3624 48.1281 71.0702 43.4198 71.0702 37.6658C70.9962 32.4336 67.2595 28.1741 62.327 27.352L62.327 27.3519Z" fill="#D0DAF3"/>
<path d="M49.179 61.968C49.4777 61.8935 49.7769 61.6693 49.9265 61.3701C50.0761 61.0714 50.1507 60.7722 50.0761 60.3984C50.0016 60.0997 49.7774 59.8005 49.4782 59.6509L46.8623 58.1563L49.4782 56.6618C50.0761 56.288 50.3003 55.541 49.9265 54.9431C49.5527 54.3452 48.8057 54.121 48.2078 54.4948L45.5919 55.9893V52.9251C45.5919 52.2527 44.9939 51.6547 44.3215 51.6547C43.649 51.6547 43.0511 52.2527 43.0511 52.9251V55.9142L40.4352 54.4197C39.8372 54.0459 39.0903 54.27 38.7165 54.868C38.3427 55.4659 38.5668 56.2129 39.1648 56.5867L41.7807 58.0812L39.1648 59.5757C38.5668 59.9495 38.3427 60.6965 38.7165 61.2945C38.8661 61.5932 39.1648 61.8178 39.464 61.8924C39.7627 61.9669 40.1365 61.9669 40.4357 61.7428L43.0516 60.2482V63.3124C43.0516 63.9849 43.6495 64.5828 44.322 64.5828C44.9945 64.5828 45.5924 63.9849 45.5924 63.3124V60.3234L48.2083 61.8179C48.5065 61.968 48.8802 62.0431 49.1789 61.968L49.179 61.968Z" fill="#BBCCF8"/>
</svg>
