<svg width="78" height="81" viewBox="0 0 78 81" fill="none" xmlns="http://www.w3.org/2000/svg">
<path d="M64.1091 15.5812C61.7684 7.10742 54.0777 0.814911 44.7983 0.814911C36.7727 0.814911 29.8345 5.59752 26.6578 12.3933C26.2397 12.3933 25.9056 12.3096 25.4875 12.3096C18.8837 12.3096 13.5335 17.5112 13.1988 24.0553C12.7807 24.0553 12.3626 23.9716 12.0285 23.9716C5.50795 23.9716 0.241211 29.2575 0.241211 35.8854C0.241211 42.4296 5.50795 47.7993 12.0285 47.7993H61.2669C70.212 47.7993 77.401 40.5001 77.401 31.6065C77.4844 23.5518 71.7161 16.9234 64.1093 15.5816L64.1091 15.5812Z" fill="#D0DAF3"/>
<path d="M57.7541 53.2355C57.4398 52.7454 56.8115 52.5616 56.3085 52.868L54.1083 54.093V51.5814C54.1083 51.0302 53.6054 50.5401 53.0398 50.5401C52.4742 50.5401 51.9713 51.0302 51.9713 51.5814V54.0314L49.771 52.8064C49.2681 52.5 48.6398 52.6838 48.3254 53.1739C48.0111 53.664 48.1996 54.2763 48.7025 54.5827L50.9027 55.8077L48.7025 57.0327C48.4513 57.1553 48.2623 57.4002 48.1996 57.6454C48.1369 57.8903 48.1369 58.1966 48.3254 58.4419C48.4513 58.6867 48.7025 58.8709 48.9542 58.932C49.2054 58.9931 49.5198 58.9931 49.7715 58.8094L51.9717 57.5844V60.096C51.9717 60.6472 52.4746 61.1373 53.0402 61.1373C53.6058 61.1373 54.1087 60.6472 54.1087 60.096V57.6459L56.309 58.871C56.5602 58.9936 56.8119 59.0547 57.1262 58.9936C57.3775 58.9325 57.6292 58.7487 57.755 58.5035C58.0694 58.0134 57.8808 57.4011 57.3779 57.0947L55.1777 55.8697L57.3779 54.6447C57.88 54.3994 58.0685 53.7871 57.7541 53.2354L57.7541 53.2355Z" fill="#D0DAF3"/>
<path d="M43.3178 58.9932C43.5693 58.9321 43.8212 58.7483 43.9472 58.5031C44.2619 58.013 44.0732 57.4007 43.5697 57.0943L41.3671 55.8693L43.5697 54.6443C44.0732 54.3379 44.2619 53.7256 43.9472 53.2355C43.6325 52.7454 43.0035 52.5616 42.5001 52.868L40.2975 54.093V51.5814C40.2975 51.0302 39.794 50.5401 39.2278 50.5401C38.6616 50.5401 38.1581 51.0302 38.1581 51.5814V54.0314L35.9555 52.8064C35.4521 52.5 34.8231 52.6838 34.5084 53.1739C34.3824 53.4187 34.3196 53.664 34.3824 53.9703C34.4452 54.2152 34.6339 54.4605 34.8859 54.5831L37.0885 55.8081L34.8859 57.0331C34.3824 57.3395 34.1937 57.9518 34.5084 58.4419C34.6344 58.6867 34.8859 58.8709 35.1378 58.932C35.3893 58.9931 35.704 58.9931 35.956 58.8094L38.1586 57.5844V60.096C38.1586 60.6472 38.662 61.1373 39.2282 61.1373C39.7944 61.1373 40.2979 60.6472 40.2979 60.096V57.6459L42.5005 58.871C42.7516 58.9932 43.0663 59.0547 43.3178 58.9932L43.3178 58.9932Z" fill="#D0DAF3"/>
<path d="M50.5646 64.3606C50.6221 64.1346 50.6221 63.8518 50.4492 63.6254C50.3339 63.3994 50.1036 63.2294 49.8729 63.173C49.6426 63.1166 49.3544 63.1166 49.1237 63.2862L47.1068 64.417V62.0985C47.1068 61.5897 46.6458 61.1373 46.1274 61.1373C45.6089 61.1373 45.1479 61.5897 45.1479 62.0985V64.3602L43.131 63.2293C42.9007 63.1161 42.67 63.0597 42.3818 63.1161C42.1515 63.1725 41.9208 63.3421 41.8055 63.5686C41.5173 64.021 41.6901 64.5862 42.1511 64.869L44.168 65.9998L42.1511 67.1307C41.6901 67.4135 41.5173 67.9787 41.8055 68.4311C42.0936 68.8836 42.6696 69.0532 43.1306 68.7704L45.1475 67.6395V69.958C45.1475 70.4669 45.6085 70.9193 46.127 70.9193C46.6454 70.9193 47.1064 70.4669 47.1064 69.958V67.6964L49.1233 68.8272C49.5843 69.11 50.1603 68.9404 50.4485 68.488C50.7366 68.0356 50.5638 67.4704 50.1028 67.1875L48.0859 66.0567L50.1028 64.9259C50.3343 64.8131 50.5071 64.587 50.5646 64.3606L50.5646 64.3606Z" fill="#D0DAF3"/>
<path d="M36.7565 64.3605C36.8139 64.1345 36.8139 63.8517 36.6413 63.6253C36.526 63.3993 36.2959 63.2293 36.0655 63.1729C35.8354 63.1165 35.5475 63.1165 35.317 63.2861L33.302 64.4169V62.0985C33.302 61.5897 32.8414 61.1373 32.3234 61.1373C31.8055 61.1373 31.3449 61.5897 31.3449 62.0985V64.36L29.3299 63.2293C28.8693 62.9465 28.2939 63.1161 28.006 63.5685C27.7181 64.0209 27.8908 64.586 28.3513 64.8689L30.3663 65.9997L28.3513 67.1304C28.1213 67.2436 27.9482 67.4696 27.8908 67.696C27.8333 67.922 27.8333 68.2048 28.006 68.4312C28.1213 68.6572 28.3513 68.8272 28.5818 68.8836C28.8119 68.94 29.0998 68.94 29.3303 68.7704L31.3453 67.6397V69.9581C31.3453 70.4669 31.8059 70.9193 32.3238 70.9193C32.8418 70.9193 33.3024 70.4669 33.3024 69.9581V67.6965L35.3174 68.8273C35.778 69.1101 36.3533 68.9405 36.6413 68.4881C36.9292 68.0357 36.7565 67.4705 36.2959 67.1877L34.281 66.0569L36.2959 64.9261C36.526 64.8129 36.6987 64.5869 36.7565 64.3605Z" fill="#D0DAF3"/>
<path d="M29.5102 58.9939C29.7617 58.9328 30.0136 58.7491 30.1396 58.5038C30.2656 58.2589 30.3283 58.0137 30.2656 57.7073C30.2028 57.4625 30.0141 57.2172 29.7621 57.0945L27.5595 55.8695L29.7621 54.6444C30.2656 54.338 30.4543 53.7257 30.1396 53.2356C29.8249 52.7455 29.1959 52.5617 28.6924 52.8681L26.4898 54.0932V51.5814C26.4898 51.0302 25.9864 50.5401 25.4202 50.5401C24.854 50.5401 24.3505 51.0302 24.3505 51.5814V54.0316L22.1479 52.8065C21.6445 52.5001 21.0155 52.6839 20.7008 53.174C20.386 53.6641 20.5748 54.2764 21.0782 54.5828L23.2808 55.8079L21.0782 57.033C20.5748 57.3393 20.386 57.9517 20.7008 58.4418C20.8267 58.6866 21.0782 58.8708 21.3302 58.9319C21.5817 58.993 21.8964 58.993 22.1483 58.8093L24.3509 57.5842V60.0959C24.3509 60.6472 24.8544 61.1373 25.4206 61.1373C25.9868 61.1373 26.4903 60.6471 26.4903 60.0959V57.6458L28.6929 58.8709C28.9439 58.9939 29.2587 59.0555 29.5102 58.9939L29.5102 58.9939Z" fill="#D0DAF3"/>
</svg>
