<svg width="79" height="70" viewBox="0 0 79 70" fill="none" xmlns="http://www.w3.org/2000/svg">
<path d="M40.1361 23.9131C40.6282 23.1761 41.1202 22.5209 41.6948 21.8657C39.4798 16.6244 34.23 12.9393 28.242 12.9393C20.2033 12.9393 13.6409 19.491 13.6409 27.5166C13.6409 32.7579 16.4297 37.3439 20.6136 39.9648C22.0899 36.034 25.5357 33.0858 29.7188 32.3488C31.1945 27.8445 35.2142 24.4866 40.1361 23.9131Z" fill="#FFEBB8"/>
<path d="M28.1597 9.90901C29.2263 9.90901 30.0462 9.08983 30.0462 8.02557V1.88344C30.0462 0.818629 29.2257 0 28.1597 0C27.0932 0 26.2732 0.819185 26.2732 1.88344V8.02557C26.2732 9.08981 27.1755 9.90901 28.1597 9.90901Z" fill="#FFEBB8"/>
<path d="M13.0664 15.0684C13.3943 15.478 13.8869 15.6419 14.379 15.6419C14.8711 15.6419 15.3632 15.478 15.6916 15.0684C16.4297 14.3315 16.4297 13.1028 15.6916 12.3658L11.344 8.02541C10.6059 7.28849 9.37521 7.28849 8.63709 8.02541C7.89896 8.76233 7.89896 9.99104 8.63709 10.7279L13.0664 15.0684Z" fill="#FFEBB8"/>
<path d="M10.5236 27.5164C10.5236 26.4516 9.70307 25.633 8.63708 25.633H2.48491C1.41836 25.633 0.598389 26.4522 0.598389 27.5164C0.598389 28.5812 1.41891 29.3999 2.48491 29.3999H8.63708C9.70306 29.4004 10.5236 28.5813 10.5236 27.5164Z" fill="#FFEBB8"/>
<path d="M13.0664 39.9645L8.71888 44.3049C7.98075 45.0419 7.98075 46.2706 8.71888 47.0075C9.12914 47.4171 9.5394 47.581 10.0315 47.581C10.5235 47.581 11.0156 47.4171 11.3441 47.0075L15.6916 42.667C16.4297 41.9301 16.4297 40.7014 15.6916 39.9645C14.9529 39.2276 13.8045 39.2276 13.0664 39.9645H13.0664Z" fill="#FFEBB8"/>
<path d="M42.0227 15.6417C42.5147 15.6417 43.0068 15.4777 43.3353 15.0681L47.6828 10.7277C48.4209 9.99078 48.4209 8.76208 47.6828 8.02517C46.9447 7.28824 45.7139 7.28824 44.9758 8.02517L40.6283 12.3656C39.8902 13.1025 39.8902 14.3312 40.6283 15.0681C41.038 15.4777 41.5307 15.6417 42.0227 15.6417H42.0227Z" fill="#FFEBB8"/>
<path d="M69.0103 29.9733C67.3698 23.9129 61.8739 19.4907 55.2297 19.4907C49.4878 19.4907 44.5658 22.8486 42.3509 27.6802C42.1048 27.6802 41.7764 27.5985 41.5303 27.5985C36.8544 27.5985 32.9996 31.2837 32.8354 35.952C32.5894 35.952 32.2609 35.8703 32.0149 35.8703C27.339 35.8703 23.5659 39.6378 23.5659 44.3055C23.5659 48.9738 27.3395 52.7407 32.0149 52.7407H67.1233C73.4397 52.7407 78.607 47.5812 78.607 41.2757C78.5258 35.5426 74.4243 30.8743 69.0102 29.9734L69.0103 29.9733Z" fill="#D0DAF3"/>
<path d="M35.8706 55.934C34.8864 55.5245 33.8199 56.0157 33.4096 56.9989L29.39 66.9085C28.9797 67.891 29.4718 68.9558 30.4566 69.3655C30.7026 69.4471 30.9486 69.5294 31.1947 69.5294C31.9328 69.5294 32.6709 69.1198 32.9176 68.3829L36.9371 58.4733C37.3468 57.4085 36.8548 56.262 35.8706 55.9341L35.8706 55.934Z" fill="#BBCCF8"/>
<path d="M45.8781 55.934C44.894 55.5245 43.8274 56.0157 43.4171 56.9989L39.3976 66.9085C38.9873 67.891 39.4794 68.9558 40.4641 69.3655C40.7102 69.4471 40.9562 69.5294 41.2023 69.5294C41.9404 69.5294 42.6785 69.1198 42.9252 68.3829L46.9447 58.4733C47.3544 57.4085 46.8623 56.262 45.8782 55.9341L45.8781 55.934Z" fill="#BBCCF8"/>
<path d="M55.8855 55.934C54.9013 55.5245 53.8348 56.0157 53.4245 56.9989L49.4049 66.9085C48.9946 67.891 49.4867 68.9558 50.4714 69.3655C50.7175 69.4471 50.9635 69.5294 51.2096 69.5294C51.9477 69.5294 52.6858 69.1198 52.9325 68.3829L56.952 58.4733C57.2799 57.4085 56.8696 56.262 55.8855 55.9341L55.8855 55.934Z" fill="#BBCCF8"/>
<path d="M65.893 55.934C64.9089 55.5245 63.8423 56.0157 63.432 56.9989L59.4125 66.9085C59.0022 67.891 59.4943 68.9558 60.479 69.3655C60.7251 69.4471 60.9711 69.5294 61.2171 69.5294C61.9553 69.5294 62.6934 69.1198 62.94 68.3829L66.9596 58.4733C67.2875 57.4085 66.8772 56.262 65.8931 55.9341L65.893 55.934Z" fill="#BBCCF8"/>
</svg>
