<svg width="79" height="66" viewBox="0 0 79 66" fill="none" xmlns="http://www.w3.org/2000/svg">
<path d="M78.2053 23.0364C78.2053 15.9222 72.4574 10.1318 65.3956 10.1318C58.3338 10.1318 52.586 15.9222 52.586 23.0364C52.586 24.7739 53.9818 26.18 55.7065 26.18C57.4311 26.18 58.8269 24.7738 58.8269 23.0364C58.8269 19.3964 61.783 16.4184 65.3962 16.4184C69.0094 16.4184 71.9655 19.3964 71.9655 23.0364C71.9655 26.6764 69.0094 29.6544 65.3962 29.6544H3.31799C1.5933 29.6544 0.19751 31.0606 0.19751 32.798C0.19751 34.5355 1.59338 35.9416 3.31799 35.9416H55.2141C58.8272 35.9416 61.7833 38.9196 61.7833 42.5596C61.7833 46.1996 58.8272 49.1776 55.2141 49.1776C51.6009 49.1776 48.6448 46.1996 48.6448 42.5596C48.6448 40.8221 47.2489 39.416 45.5243 39.416C43.7997 39.416 42.4038 40.8222 42.4038 42.5596C42.4038 49.6738 48.1517 55.4642 55.2135 55.4642C62.2753 55.4642 68.0231 49.6738 68.0231 42.5596C68.0231 40.0778 67.3661 37.8441 66.1347 35.8592C72.8677 35.5274 78.2048 29.9026 78.2048 23.0364H78.2053Z" fill="#D0DAF3"/>
<path d="M27.5407 40.7392H3.31701C1.59232 40.7392 0.196533 42.1454 0.196533 43.8828C0.196533 45.6202 1.5924 47.0264 3.31701 47.0264H27.5407C30.8249 47.0264 33.4529 49.6738 33.4529 52.9824C33.4529 56.2911 30.8249 58.9385 27.5407 58.9385C24.2564 58.9385 21.6284 56.2911 21.6284 52.9824C21.6284 51.245 20.2326 49.8388 18.508 49.8388C16.7833 49.8388 15.3875 51.245 15.3875 52.9824C15.3875 59.6829 20.8072 65.2253 27.5402 65.2253C34.1913 65.2253 39.6929 59.7654 39.6929 52.9824C39.6935 46.1989 34.1919 40.739 27.5408 40.739L27.5407 40.7392Z" fill="#D0DAF3"/>
<path d="M3.31716 24.9391H37.7229C44.374 24.9391 49.7119 19.4792 49.7119 12.8612C49.7119 6.16082 44.2922 0.783386 37.7229 0.783386C31.0719 0.783386 25.734 6.24325 25.734 12.8612C25.734 14.5987 27.1299 16.0048 28.8545 16.0048C30.5792 16.0048 31.975 14.5986 31.975 12.8612C31.975 9.63503 34.6029 7.07077 37.7228 7.07077C40.9252 7.07077 43.4706 9.7182 43.4706 12.8612C43.4706 16.0874 40.8427 18.6517 37.7228 18.6517H3.31701C1.59232 18.6517 0.196533 20.0579 0.196533 21.7953C0.196533 23.5328 1.5924 24.9389 3.31701 24.9389L3.31716 24.9391Z" fill="#D0DAF3"/>
</svg>
